#!OML:ASF I:\Actors\actors\Patient Classification 1\Patient 1\Session 1\Subject1.ASF
:FULLY-SPECIFIED
:DEGREES
521
root 1.4109 17.606 8.66231 11.565 -25.4407 -6.33691
lowerback -2.26391 -4.58907 6.31048
upperback -11.7346 -5.77741 4.31733
thorax -11.5352 -3.25896 1.65796
lowerneck -11.5542 8.69761 11.2859
upperneck 17.8663 10.4311 -3.39521
head 8.23901 5.40581 -1.79568
rclavicle 6.79844e-014 1.74931e-014
rhumerus -14.5119 42.5624 -86.7864
rradius 117.153
rwrist -16.9446
rhand -12.6156 308.504
rfingers 7.12502
rthumb 13.4638 278.96
lclavicle 6.79844e-014 1.74931e-014
lhumerus -28.5399 -59.1244 107.319
lradius 108.217
lwrist -9.19571
lhand -52.8115 -54.9186
lfingers 7.12502
lthumb -25.2851 333.426
rfemur -15.5048 31.5887 16.0925
rtibia 10.7746
rfoot -10.3932 -6.01469
rtoes -7.42266
lfemur 9.62996 -38.1993 -21.9976
ltibia -4.98921
lfoot -50.1833 56.5751
ltoes 35.236
522
root 1.37967 17.6071 8.64034 11.3075 -24.6843 -6.42509
lowerback -2.35318 -4.24593 6.10633
upperback -11.4356 -5.38446 3.60149
thorax -11.1642 -3.07933 0.924579
lowerneck -12.4291 8.11671 11.5169
upperneck 17.6812 9.3697 -2.94575
head 8.24275 4.94483 -1.78683
rclavicle 4.75095e-014 2.70347e-014
rhumerus -16.071 41.5142 -88.5624
rradius 117.221
rwrist -16.4103
rhand -12.4108 309.237
rfingers 7.12502
rthumb 13.6611 279.706
lclavicle 4.75095e-014 2.70347e-014
lhumerus -30.7211 -59.3966 109.356
lradius 107.976
lwrist -10.0492
lhand -52.1147 -55.1665
lfingers 7.12502
lthumb -24.6175 333.27
rfemur -14.9234 31.2397 16.6323
rtibia 10.6008
rfoot -10.3591 -6.34754
rtoes -7.30239
lfemur 9.79078 -38.3116 -21.7058
ltibia -5.0049
lfoot -49.1222 56.3705
ltoes 34.7446
523
root 1.34214 17.6013 8.6143 11.0116 -23.9214 -6.58264
lowerback -1.94656 -4.09884 6.12902
upperback -11.3487 -5.19691 2.96166
thorax -11.367 -3.02157 0.241586
lowerneck -13.2115 7.70859 11.3857
upperneck 17.7445 8.55834 -2.11046
head 8.30047 4.62262 -1.56422
rclavicle -3.1408e-014 1.66979e-014
rhumerus -19.1015 41.1659 -92.059
rradius 116.921
rwrist -16.1876
rhand -12.4368 309.467
rfingers 7.12502
rthumb 13.6361 279.934
lclavicle -3.1408e-014 1.66979e-014
lhumerus -34.4346 -58.2943 112.104
lradius 107.511
lwrist -11.1455
lhand -50.9639 -55.285
lfingers 7.12502
lthumb -23.5139 333.298
rfemur -14.3452 30.8589 17.2755
rtibia 10.5408
rfoot -10.3995 -6.57113
rtoes -6.67222
lfemur 9.9272 -38.1981 -21.2832
ltibia -4.97973
lfoot -47.8072 56.0934
ltoes 34.1455
524
root 1.30335 17.589 8.58581 10.7397 -23.0819 -6.79575
lowerback -2.34287 -4.13033 6.57154
upperback -10.8723 -5.31288 2.28627
thorax -10.7071 -3.14014 -0.782535
lowerneck -13.56 7.49029 11.1373
upperneck 17.2179 8.08415 -1.2452
head 8.10583 4.45029 -1.2942
rclavicle 5.4964e-014 -4.17448e-015
rhumerus -22.0584 41.3876 -96.4008
rradius 115.782
rwrist -15.7868
rhand -12.6452 309.928
rfingers 7.12502
rthumb 13.4352 280.381
lclavicle 5.4964e-014 -4.17448e-015
lhumerus -37.7251 -56.4279 113.743
lradius 106.629
lwrist -11.1943
lhand -50.3554 -56.3703
lfingers 7.12502
lthumb -22.9302 332.286
rfemur -13.8437 30.3551 17.9643
rtibia 10.6035
rfoot -10.5447 -6.65574
rtoes -5.68278
lfemur 9.95558 -38.0032 -20.7525
ltibia -4.83977
lfoot -46.2408 55.8183
ltoes 33.3665
525
root 1.26335 17.574 8.55704 10.5482 -22.2287 -6.99672
lowerback -1.98845 -4.13122 7.41515
upperback -10.934 -5.31374 1.45237
thorax -11.1921 -3.27394 -2.09036
lowerneck -13.5729 7.20874 10.9311
upperneck 17.1174 7.53446 -0.230651
head 7.99498 4.26961 -0.996463
rclavicle -1.04884e-013 -7.45443e-015
rhumerus -26.255 41.0325 -101.8
rradius 114.285
rwrist -15.5403
rhand -12.6085 310.633
rfingers 7.12502
rthumb 13.4706 281.088
lclavicle -1.04884e-013 -7.45443e-015
lhumerus -42.4682 -53.4975 116.085
lradius 105.708
lwrist -11.5869
lhand -51.2053 -56.8514
lfingers 7.12502
lthumb -23.7455 331.702
rfemur -13.5499 29.6708 18.5849
rtibia 10.8145
rfoot -10.7562 -6.62218
rtoes -5.72846
lfemur 9.9723 -38.1894 -20.3072
ltibia -4.68191
lfoot -45.025 55.8448
ltoes 32.4442
526
root 1.22372 17.5551 8.52728 10.5449 -21.5378 -7.34751
lowerback -1.67884 -3.98475 4.68298
upperback -10.8536 -5.06736 3.10706
thorax -10.7657 -2.79404 1.14287
lowerneck -13.7574 6.76277 9.04611
upperneck 16.6364 7.45549 -0.88107
head 7.79455 4.04408 -0.934519
rclavicle -2.09718e-014 4.01545e-014
rhumerus -28.9565 42.1898 -102.317
rradius 112.93
rwrist -16.8069
rhand -12.3246 310.351
rfingers 7.12502
rthumb 13.7442 280.825
lclavicle -2.09718e-014 4.01545e-014
lhumerus -43.4799 -49.3014 118.913
lradius 104.117
lwrist -11.294
lhand -52.0273 -56.1099
lfingers 7.12502
lthumb -24.5337 332.338
rfemur -13.5717 28.8998 19.2356
rtibia 11.1854
rfoot -11.007 -6.33788
rtoes -6.31948
lfemur 10.113 -39.005 -19.8925
ltibia -4.65541
lfoot -45.1626 56.2646
ltoes 32.0903
527
root 1.19633 17.5257 8.49417 10.781 -20.9253 -8.35645
lowerback -1.39386 -3.49999 4.69399
upperback -10.6499 -4.3694 3.38092
thorax -10.662 -2.43087 1.37651
lowerneck -14.451 6.24664 8.26997
upperneck 16.3985 6.77651 -0.501209
head 7.75718 3.70085 -0.752971
rclavicle -1.2921e-014 -1.91827e-014
rhumerus -31.0434 42.1852 -104.149
rradius 111.345
rwrist -18.4088
rhand -12.5169 309.415
rfingers 7.12502
rthumb 13.5588 279.876
lclavicle -1.2921e-014 -1.91827e-014
lhumerus -44.6952 -47.0794 119.716
lradius 103.054
lwrist -8.47577
lhand -51.5818 -56.6118
lfingers 7.12502
lthumb -24.1066 331.894
rfemur -13.6725 28.0088 20.5534
rtibia 11.6477
rfoot -11.3173 -5.66706
rtoes -6.18491
lfemur 10.5776 -40.2884 -19.1094
ltibia -4.78748
lfoot -46.4875 57.0169
ltoes 32.3269
528
root 1.16899 17.5023 8.46982 10.5169 -19.1031 -10.1312
lowerback -0.505717 -3.17557 6.2393
upperback -10.2924 -3.7924 3.25789
thorax -10.922 -2.28016 0.392884
lowerneck -14.8567 5.47962 7.6799
upperneck 15.9008 5.63165 0.492849
head 7.56522 3.20254 -0.464911
rclavicle 5.8393e-014 -2.96686e-014
rhumerus -32.338 41.6687 -105.614
rradius 110.419
rwrist -20.603
rhand -12.8235 308.659
rfingers 7.12502
rthumb 13.2634 279.102
lclavicle 5.8393e-014 -2.96686e-014
lhumerus -45.6027 -46.3459 119.515
lradius 101.99
lwrist -6.83303
lhand -51.6474 -55.9013
lfingers 7.12502
lthumb -24.1695 332.596
rfemur -12.2154 27.2098 23.3874
rtibia 11.4389
rfoot -11.5437 -6.17361
rtoes -5.84106
lfemur 11.6284 -41.0098 -17.4505
ltibia -5.11114
lfoot -44.3158 57.4322
ltoes 30.7057
529
root 1.1244 17.502 8.44139 10.5244 -18.3145 -9.36483
lowerback -0.58611 -2.55717 4.56784
upperback -10.4708 -3.07281 2.8461
thorax -10.9354 -1.80125 0.799139
lowerneck -14.8423 4.50847 6.68829
upperneck 15.3961 4.34659 1.53022
head 7.30229 2.6158 -0.122397
rclavicle 4.53229e-014 -3.22031e-014
rhumerus -33.1826 41.896 -106.161
rradius 110.155
rwrist -21.5702
rhand -13.0391 308.61
rfingers 7.12502
rthumb 13.0555 279.038
lclavicle 4.53229e-014 -3.22031e-014
lhumerus -46.1939 -46.6061 119.559
lradius 101.669
lwrist -6.13335
lhand -52.7691 -54.7667
lfingers 7.12502
lthumb -25.2446 333.583
rfemur -12.7589 26.9449 22.4768
rtibia 11.6223
rfoot -11.5987 -6.78023
rtoes -5.80951
lfemur 11.0415 -42.4724 -17.8544
ltibia -4.78736
lfoot -44.9026 58.0296
ltoes 30.4734
530
root 1.09568 17.4898 8.39955 10.9807 -17.7347 -9.45168
lowerback -0.592892 -1.77747 3.68452
upperback -10.7069 -2.05479 2.82901
thorax -11.1277 -1.22432 1.18412
lowerneck -15.026 3.44583 5.5474
upperneck 15.3082 3.02825 2.16581
head 7.23965 1.97502 0.124656
rclavicle 7.25564e-014 1.31198e-014
rhumerus -33.0133 43.0615 -105.58
rradius 110.697
rwrist -21.6606
rhand -13.9213 308.988
rfingers 7.12502
rthumb 12.205 279.364
lclavicle 7.25564e-014 1.31198e-014
lhumerus -45.3193 -47.4224 118.923
lradius 102.239
lwrist -5.77623
lhand -52.1884 -55.2654
lfingers 7.12502
lthumb -24.6881 333.162
rfemur -13.6651 26.3476 22.3895
rtibia 12.0021
rfoot -11.5765 -6.70362
rtoes -5.82886
lfemur 10.2792 -43.6218 -17.203
ltibia -4.63684
lfoot -45.8785 58.464
ltoes 30.56
531
root 1.06193 17.5126 8.37475 10.3898 -15.5706 -9.35032
lowerback -0.096221 -1.49933 3.21251
upperback -10.5752 -1.69024 2.56258
thorax -11.2595 -1.0093 1.13677
lowerneck -15.3896 2.31104 4.45565
upperneck 15.426 1.58151 2.82891
head 7.30008 1.28387 0.366874
rclavicle -2.68359e-015 -3.26007e-014
rhumerus -31.6375 44.1325 -104.116
rradius 111.899
rwrist -20.0188
rhand -14.1784 310.436
rfingers 7.12502
rthumb 11.9571 280.798
lclavicle -2.68359e-015 -3.26007e-014
lhumerus -43.2507 -49.0268 117.353
lradius 103.018
lwrist -6.75875
lhand -52.1777 -57.6072
lfingers 7.12502
lthumb -24.6779 330.821
rfemur -12.5221 25.8365 22.8841
rtibia 11.3669
rfoot -11.4582 -8.32628
rtoes -5.5868
lfemur 9.91984 -43.9883 -16.541
ltibia -4.52559
lfoot -41.8352 58.1338
ltoes 28.3668
